<mxfile host="app.diagrams.net" agent="Mozilla/5.0 (Macintosh; Intel Mac OS X 10_15_7) AppleWebKit/537.36 (KHTML, like Gecko) Chrome/129.0.0.0 Safari/537.36" version="24.7.16">
  <diagram name="Страница — 1" id="yvjUeDHF9Wf6KYwauPwP">
    <mxGraphModel dx="1468" dy="983" grid="0" gridSize="10" guides="1" tooltips="1" connect="1" arrows="1" fold="1" page="1" pageScale="1" pageWidth="1442" pageHeight="2039" math="0" shadow="0">
      <root>
        <mxCell id="0" />
        <mxCell id="1" parent="0" />
        <mxCell id="nvtQCPNUQL09ssSKa_be-8" style="edgeStyle=orthogonalEdgeStyle;rounded=0;orthogonalLoop=1;jettySize=auto;html=1;exitX=0.5;exitY=1;exitDx=0;exitDy=0;entryX=0.5;entryY=0;entryDx=0;entryDy=0;" edge="1" parent="1" source="nvtQCPNUQL09ssSKa_be-1" target="nvtQCPNUQL09ssSKa_be-2">
          <mxGeometry relative="1" as="geometry" />
        </mxCell>
        <mxCell id="nvtQCPNUQL09ssSKa_be-9" style="edgeStyle=orthogonalEdgeStyle;rounded=0;orthogonalLoop=1;jettySize=auto;html=1;exitX=0.5;exitY=1;exitDx=0;exitDy=0;entryX=0.5;entryY=0;entryDx=0;entryDy=0;" edge="1" parent="1" source="nvtQCPNUQL09ssSKa_be-1" target="nvtQCPNUQL09ssSKa_be-3">
          <mxGeometry relative="1" as="geometry" />
        </mxCell>
        <mxCell id="nvtQCPNUQL09ssSKa_be-10" style="edgeStyle=orthogonalEdgeStyle;rounded=0;orthogonalLoop=1;jettySize=auto;html=1;exitX=0.5;exitY=1;exitDx=0;exitDy=0;" edge="1" parent="1" source="nvtQCPNUQL09ssSKa_be-1" target="nvtQCPNUQL09ssSKa_be-4">
          <mxGeometry relative="1" as="geometry" />
        </mxCell>
        <mxCell id="nvtQCPNUQL09ssSKa_be-11" style="edgeStyle=orthogonalEdgeStyle;rounded=0;orthogonalLoop=1;jettySize=auto;html=1;exitX=0.5;exitY=1;exitDx=0;exitDy=0;entryX=0.5;entryY=0;entryDx=0;entryDy=0;" edge="1" parent="1" source="nvtQCPNUQL09ssSKa_be-1" target="nvtQCPNUQL09ssSKa_be-5">
          <mxGeometry relative="1" as="geometry" />
        </mxCell>
        <mxCell id="nvtQCPNUQL09ssSKa_be-12" style="edgeStyle=orthogonalEdgeStyle;rounded=0;orthogonalLoop=1;jettySize=auto;html=1;exitX=0.5;exitY=1;exitDx=0;exitDy=0;" edge="1" parent="1" source="nvtQCPNUQL09ssSKa_be-1" target="nvtQCPNUQL09ssSKa_be-6">
          <mxGeometry relative="1" as="geometry" />
        </mxCell>
        <mxCell id="nvtQCPNUQL09ssSKa_be-13" style="edgeStyle=orthogonalEdgeStyle;rounded=0;orthogonalLoop=1;jettySize=auto;html=1;exitX=0.5;exitY=1;exitDx=0;exitDy=0;entryX=0.5;entryY=0;entryDx=0;entryDy=0;" edge="1" parent="1" source="nvtQCPNUQL09ssSKa_be-1" target="nvtQCPNUQL09ssSKa_be-7">
          <mxGeometry relative="1" as="geometry" />
        </mxCell>
        <mxCell id="nvtQCPNUQL09ssSKa_be-15" style="edgeStyle=orthogonalEdgeStyle;rounded=0;orthogonalLoop=1;jettySize=auto;html=1;exitX=0.5;exitY=1;exitDx=0;exitDy=0;entryX=0.5;entryY=0;entryDx=0;entryDy=0;" edge="1" parent="1" source="nvtQCPNUQL09ssSKa_be-1" target="nvtQCPNUQL09ssSKa_be-14">
          <mxGeometry relative="1" as="geometry" />
        </mxCell>
        <mxCell id="nvtQCPNUQL09ssSKa_be-18" style="edgeStyle=orthogonalEdgeStyle;rounded=0;orthogonalLoop=1;jettySize=auto;html=1;exitX=0.5;exitY=1;exitDx=0;exitDy=0;entryX=0.5;entryY=0;entryDx=0;entryDy=0;" edge="1" parent="1" source="nvtQCPNUQL09ssSKa_be-1" target="nvtQCPNUQL09ssSKa_be-16">
          <mxGeometry relative="1" as="geometry" />
        </mxCell>
        <mxCell id="nvtQCPNUQL09ssSKa_be-20" style="edgeStyle=orthogonalEdgeStyle;rounded=0;orthogonalLoop=1;jettySize=auto;html=1;exitX=0.5;exitY=1;exitDx=0;exitDy=0;entryX=0.5;entryY=0;entryDx=0;entryDy=0;" edge="1" parent="1" source="nvtQCPNUQL09ssSKa_be-1" target="nvtQCPNUQL09ssSKa_be-19">
          <mxGeometry relative="1" as="geometry">
            <Array as="points">
              <mxPoint x="770" y="530" />
              <mxPoint x="370" y="530" />
            </Array>
          </mxGeometry>
        </mxCell>
        <mxCell id="nvtQCPNUQL09ssSKa_be-29" style="edgeStyle=orthogonalEdgeStyle;rounded=0;orthogonalLoop=1;jettySize=auto;html=1;exitX=0.5;exitY=1;exitDx=0;exitDy=0;entryX=0.5;entryY=0;entryDx=0;entryDy=0;" edge="1" parent="1" source="nvtQCPNUQL09ssSKa_be-1" target="nvtQCPNUQL09ssSKa_be-28">
          <mxGeometry relative="1" as="geometry">
            <Array as="points">
              <mxPoint x="770" y="530" />
              <mxPoint x="1170" y="530" />
            </Array>
          </mxGeometry>
        </mxCell>
        <mxCell id="nvtQCPNUQL09ssSKa_be-1" value="Штаб-квартира" style="rounded=0;whiteSpace=wrap;html=1;fillColor=#d5e8d4;strokeColor=#82b366;" vertex="1" parent="1">
          <mxGeometry x="710" y="20" width="120" height="60" as="geometry" />
        </mxCell>
        <mxCell id="nvtQCPNUQL09ssSKa_be-47" style="edgeStyle=orthogonalEdgeStyle;rounded=0;orthogonalLoop=1;jettySize=auto;html=1;exitX=0.5;exitY=1;exitDx=0;exitDy=0;" edge="1" parent="1" source="nvtQCPNUQL09ssSKa_be-2" target="nvtQCPNUQL09ssSKa_be-39">
          <mxGeometry relative="1" as="geometry" />
        </mxCell>
        <mxCell id="nvtQCPNUQL09ssSKa_be-2" value="Руководство" style="rounded=0;whiteSpace=wrap;html=1;" vertex="1" parent="1">
          <mxGeometry x="170" y="120" width="120" height="60" as="geometry" />
        </mxCell>
        <mxCell id="nvtQCPNUQL09ssSKa_be-49" style="edgeStyle=orthogonalEdgeStyle;rounded=0;orthogonalLoop=1;jettySize=auto;html=1;exitX=0.5;exitY=1;exitDx=0;exitDy=0;entryX=0.5;entryY=0;entryDx=0;entryDy=0;" edge="1" parent="1" source="nvtQCPNUQL09ssSKa_be-3" target="nvtQCPNUQL09ssSKa_be-41">
          <mxGeometry relative="1" as="geometry" />
        </mxCell>
        <mxCell id="nvtQCPNUQL09ssSKa_be-3" value="Отдел продаж" style="rounded=0;whiteSpace=wrap;html=1;" vertex="1" parent="1">
          <mxGeometry x="450" y="120" width="120" height="60" as="geometry" />
        </mxCell>
        <mxCell id="nvtQCPNUQL09ssSKa_be-50" style="edgeStyle=orthogonalEdgeStyle;rounded=0;orthogonalLoop=1;jettySize=auto;html=1;exitX=0.5;exitY=1;exitDx=0;exitDy=0;entryX=0.5;entryY=0;entryDx=0;entryDy=0;" edge="1" parent="1" source="nvtQCPNUQL09ssSKa_be-4" target="nvtQCPNUQL09ssSKa_be-42">
          <mxGeometry relative="1" as="geometry" />
        </mxCell>
        <mxCell id="nvtQCPNUQL09ssSKa_be-4" value="Отдел закупок" style="rounded=0;whiteSpace=wrap;html=1;" vertex="1" parent="1">
          <mxGeometry x="590" y="120" width="120" height="60" as="geometry" />
        </mxCell>
        <mxCell id="nvtQCPNUQL09ssSKa_be-51" style="edgeStyle=orthogonalEdgeStyle;rounded=0;orthogonalLoop=1;jettySize=auto;html=1;exitX=0.5;exitY=1;exitDx=0;exitDy=0;entryX=0.5;entryY=0;entryDx=0;entryDy=0;" edge="1" parent="1" source="nvtQCPNUQL09ssSKa_be-5" target="nvtQCPNUQL09ssSKa_be-43">
          <mxGeometry relative="1" as="geometry" />
        </mxCell>
        <mxCell id="nvtQCPNUQL09ssSKa_be-5" value="Отдел маркетинга" style="rounded=0;whiteSpace=wrap;html=1;" vertex="1" parent="1">
          <mxGeometry x="830" y="120" width="120" height="60" as="geometry" />
        </mxCell>
        <mxCell id="nvtQCPNUQL09ssSKa_be-52" style="edgeStyle=orthogonalEdgeStyle;rounded=0;orthogonalLoop=1;jettySize=auto;html=1;exitX=0.5;exitY=1;exitDx=0;exitDy=0;" edge="1" parent="1" source="nvtQCPNUQL09ssSKa_be-6" target="nvtQCPNUQL09ssSKa_be-44">
          <mxGeometry relative="1" as="geometry" />
        </mxCell>
        <mxCell id="nvtQCPNUQL09ssSKa_be-6" value="Бухгалтерия" style="rounded=0;whiteSpace=wrap;html=1;" vertex="1" parent="1">
          <mxGeometry x="970" y="120" width="120" height="60" as="geometry" />
        </mxCell>
        <mxCell id="nvtQCPNUQL09ssSKa_be-53" style="edgeStyle=orthogonalEdgeStyle;rounded=0;orthogonalLoop=1;jettySize=auto;html=1;exitX=0.5;exitY=1;exitDx=0;exitDy=0;" edge="1" parent="1" source="nvtQCPNUQL09ssSKa_be-7" target="nvtQCPNUQL09ssSKa_be-45">
          <mxGeometry relative="1" as="geometry" />
        </mxCell>
        <mxCell id="nvtQCPNUQL09ssSKa_be-7" value="Отдел ИТ" style="rounded=0;whiteSpace=wrap;html=1;" vertex="1" parent="1">
          <mxGeometry x="1110" y="120" width="120" height="60" as="geometry" />
        </mxCell>
        <mxCell id="nvtQCPNUQL09ssSKa_be-48" style="edgeStyle=orthogonalEdgeStyle;rounded=0;orthogonalLoop=1;jettySize=auto;html=1;exitX=0.5;exitY=1;exitDx=0;exitDy=0;" edge="1" parent="1" source="nvtQCPNUQL09ssSKa_be-14" target="nvtQCPNUQL09ssSKa_be-40">
          <mxGeometry relative="1" as="geometry" />
        </mxCell>
        <mxCell id="nvtQCPNUQL09ssSKa_be-14" value="Отдел кадров" style="rounded=0;whiteSpace=wrap;html=1;" vertex="1" parent="1">
          <mxGeometry x="310" y="120" width="120" height="60" as="geometry" />
        </mxCell>
        <mxCell id="nvtQCPNUQL09ssSKa_be-54" style="edgeStyle=orthogonalEdgeStyle;rounded=0;orthogonalLoop=1;jettySize=auto;html=1;exitX=0.5;exitY=1;exitDx=0;exitDy=0;" edge="1" parent="1" source="nvtQCPNUQL09ssSKa_be-16" target="nvtQCPNUQL09ssSKa_be-46">
          <mxGeometry relative="1" as="geometry" />
        </mxCell>
        <mxCell id="nvtQCPNUQL09ssSKa_be-16" value="Служба безопасности" style="rounded=0;whiteSpace=wrap;html=1;" vertex="1" parent="1">
          <mxGeometry x="1250" y="120" width="120" height="60" as="geometry" />
        </mxCell>
        <mxCell id="nvtQCPNUQL09ssSKa_be-24" style="edgeStyle=orthogonalEdgeStyle;rounded=0;orthogonalLoop=1;jettySize=auto;html=1;exitX=0.5;exitY=1;exitDx=0;exitDy=0;" edge="1" parent="1" source="nvtQCPNUQL09ssSKa_be-19" target="nvtQCPNUQL09ssSKa_be-21">
          <mxGeometry relative="1" as="geometry" />
        </mxCell>
        <mxCell id="nvtQCPNUQL09ssSKa_be-25" style="edgeStyle=orthogonalEdgeStyle;rounded=0;orthogonalLoop=1;jettySize=auto;html=1;exitX=0.5;exitY=1;exitDx=0;exitDy=0;entryX=0.5;entryY=0;entryDx=0;entryDy=0;" edge="1" parent="1" source="nvtQCPNUQL09ssSKa_be-19" target="nvtQCPNUQL09ssSKa_be-22">
          <mxGeometry relative="1" as="geometry" />
        </mxCell>
        <mxCell id="nvtQCPNUQL09ssSKa_be-27" style="edgeStyle=orthogonalEdgeStyle;rounded=0;orthogonalLoop=1;jettySize=auto;html=1;exitX=0.5;exitY=1;exitDx=0;exitDy=0;entryX=0.5;entryY=0;entryDx=0;entryDy=0;" edge="1" parent="1" source="nvtQCPNUQL09ssSKa_be-19" target="nvtQCPNUQL09ssSKa_be-23">
          <mxGeometry relative="1" as="geometry" />
        </mxCell>
        <mxCell id="nvtQCPNUQL09ssSKa_be-19" value="Склад" style="rounded=0;whiteSpace=wrap;html=1;fillColor=#ffe6cc;strokeColor=#d79b00;" vertex="1" parent="1">
          <mxGeometry x="310" y="560" width="120" height="60" as="geometry" />
        </mxCell>
        <mxCell id="nvtQCPNUQL09ssSKa_be-69" style="edgeStyle=orthogonalEdgeStyle;rounded=0;orthogonalLoop=1;jettySize=auto;html=1;exitX=0.5;exitY=1;exitDx=0;exitDy=0;entryX=0.5;entryY=0;entryDx=0;entryDy=0;" edge="1" parent="1" source="nvtQCPNUQL09ssSKa_be-21" target="nvtQCPNUQL09ssSKa_be-68">
          <mxGeometry relative="1" as="geometry" />
        </mxCell>
        <mxCell id="nvtQCPNUQL09ssSKa_be-21" value="Руководство" style="rounded=0;whiteSpace=wrap;html=1;" vertex="1" parent="1">
          <mxGeometry x="170" y="660" width="120" height="60" as="geometry" />
        </mxCell>
        <mxCell id="nvtQCPNUQL09ssSKa_be-72" style="edgeStyle=orthogonalEdgeStyle;rounded=0;orthogonalLoop=1;jettySize=auto;html=1;exitX=0.5;exitY=1;exitDx=0;exitDy=0;entryX=0.5;entryY=0;entryDx=0;entryDy=0;" edge="1" parent="1" source="nvtQCPNUQL09ssSKa_be-22" target="nvtQCPNUQL09ssSKa_be-70">
          <mxGeometry relative="1" as="geometry" />
        </mxCell>
        <mxCell id="nvtQCPNUQL09ssSKa_be-22" value="Отдел логистики" style="rounded=0;whiteSpace=wrap;html=1;" vertex="1" parent="1">
          <mxGeometry x="310" y="660" width="120" height="60" as="geometry" />
        </mxCell>
        <mxCell id="nvtQCPNUQL09ssSKa_be-75" style="edgeStyle=orthogonalEdgeStyle;rounded=0;orthogonalLoop=1;jettySize=auto;html=1;exitX=0.5;exitY=1;exitDx=0;exitDy=0;entryX=0.5;entryY=0;entryDx=0;entryDy=0;" edge="1" parent="1" source="nvtQCPNUQL09ssSKa_be-23" target="nvtQCPNUQL09ssSKa_be-74">
          <mxGeometry relative="1" as="geometry" />
        </mxCell>
        <mxCell id="nvtQCPNUQL09ssSKa_be-23" value="Служба безопасности" style="rounded=0;whiteSpace=wrap;html=1;" vertex="1" parent="1">
          <mxGeometry x="450" y="660" width="120" height="60" as="geometry" />
        </mxCell>
        <mxCell id="nvtQCPNUQL09ssSKa_be-31" style="edgeStyle=orthogonalEdgeStyle;rounded=0;orthogonalLoop=1;jettySize=auto;html=1;exitX=0.5;exitY=1;exitDx=0;exitDy=0;" edge="1" parent="1" source="nvtQCPNUQL09ssSKa_be-28" target="nvtQCPNUQL09ssSKa_be-30">
          <mxGeometry relative="1" as="geometry" />
        </mxCell>
        <mxCell id="nvtQCPNUQL09ssSKa_be-33" style="edgeStyle=orthogonalEdgeStyle;rounded=0;orthogonalLoop=1;jettySize=auto;html=1;exitX=0.5;exitY=1;exitDx=0;exitDy=0;entryX=0.5;entryY=0;entryDx=0;entryDy=0;" edge="1" parent="1" source="nvtQCPNUQL09ssSKa_be-28" target="nvtQCPNUQL09ssSKa_be-32">
          <mxGeometry relative="1" as="geometry" />
        </mxCell>
        <mxCell id="nvtQCPNUQL09ssSKa_be-35" style="edgeStyle=orthogonalEdgeStyle;rounded=0;orthogonalLoop=1;jettySize=auto;html=1;exitX=0.5;exitY=1;exitDx=0;exitDy=0;entryX=0.5;entryY=0;entryDx=0;entryDy=0;" edge="1" parent="1" source="nvtQCPNUQL09ssSKa_be-28" target="nvtQCPNUQL09ssSKa_be-34">
          <mxGeometry relative="1" as="geometry" />
        </mxCell>
        <mxCell id="nvtQCPNUQL09ssSKa_be-28" value="Точки продаж" style="rounded=0;whiteSpace=wrap;html=1;fillColor=#dae8fc;strokeColor=#6c8ebf;" vertex="1" parent="1">
          <mxGeometry x="1110" y="560" width="120" height="60" as="geometry" />
        </mxCell>
        <mxCell id="nvtQCPNUQL09ssSKa_be-85" style="edgeStyle=orthogonalEdgeStyle;rounded=0;orthogonalLoop=1;jettySize=auto;html=1;exitX=0.5;exitY=1;exitDx=0;exitDy=0;" edge="1" parent="1" source="nvtQCPNUQL09ssSKa_be-30" target="nvtQCPNUQL09ssSKa_be-83">
          <mxGeometry relative="1" as="geometry" />
        </mxCell>
        <mxCell id="nvtQCPNUQL09ssSKa_be-30" value="Руководство" style="rounded=0;whiteSpace=wrap;html=1;" vertex="1" parent="1">
          <mxGeometry x="1110" y="660" width="120" height="60" as="geometry" />
        </mxCell>
        <mxCell id="nvtQCPNUQL09ssSKa_be-81" style="edgeStyle=orthogonalEdgeStyle;rounded=0;orthogonalLoop=1;jettySize=auto;html=1;exitX=0.5;exitY=1;exitDx=0;exitDy=0;entryX=0.5;entryY=0;entryDx=0;entryDy=0;" edge="1" parent="1" source="nvtQCPNUQL09ssSKa_be-32" target="nvtQCPNUQL09ssSKa_be-78">
          <mxGeometry relative="1" as="geometry" />
        </mxCell>
        <mxCell id="nvtQCPNUQL09ssSKa_be-32" value="Служба безопасности" style="rounded=0;whiteSpace=wrap;html=1;" vertex="1" parent="1">
          <mxGeometry x="970" y="660" width="120" height="60" as="geometry" />
        </mxCell>
        <mxCell id="nvtQCPNUQL09ssSKa_be-88" style="edgeStyle=orthogonalEdgeStyle;rounded=0;orthogonalLoop=1;jettySize=auto;html=1;exitX=0.5;exitY=1;exitDx=0;exitDy=0;entryX=0.5;entryY=0;entryDx=0;entryDy=0;" edge="1" parent="1" source="nvtQCPNUQL09ssSKa_be-34" target="nvtQCPNUQL09ssSKa_be-86">
          <mxGeometry relative="1" as="geometry" />
        </mxCell>
        <mxCell id="nvtQCPNUQL09ssSKa_be-34" value="Отдел продаж" style="rounded=0;whiteSpace=wrap;html=1;" vertex="1" parent="1">
          <mxGeometry x="1250" y="660" width="120" height="60" as="geometry" />
        </mxCell>
        <mxCell id="nvtQCPNUQL09ssSKa_be-38" value="x3" style="text;html=1;align=center;verticalAlign=middle;whiteSpace=wrap;rounded=0;" vertex="1" parent="1">
          <mxGeometry x="1330" y="490" width="60" height="30" as="geometry" />
        </mxCell>
        <mxCell id="nvtQCPNUQL09ssSKa_be-39" value="Руководитель организации (1)" style="rounded=0;whiteSpace=wrap;html=1;" vertex="1" parent="1">
          <mxGeometry x="170" y="200" width="120" height="60" as="geometry" />
        </mxCell>
        <mxCell id="nvtQCPNUQL09ssSKa_be-56" style="edgeStyle=orthogonalEdgeStyle;rounded=0;orthogonalLoop=1;jettySize=auto;html=1;exitX=0.5;exitY=1;exitDx=0;exitDy=0;" edge="1" parent="1" source="nvtQCPNUQL09ssSKa_be-40" target="nvtQCPNUQL09ssSKa_be-55">
          <mxGeometry relative="1" as="geometry" />
        </mxCell>
        <mxCell id="nvtQCPNUQL09ssSKa_be-40" value="Руководитель отдела (1)" style="rounded=0;whiteSpace=wrap;html=1;" vertex="1" parent="1">
          <mxGeometry x="310" y="200" width="120" height="60" as="geometry" />
        </mxCell>
        <mxCell id="nvtQCPNUQL09ssSKa_be-58" style="edgeStyle=orthogonalEdgeStyle;rounded=0;orthogonalLoop=1;jettySize=auto;html=1;exitX=0.5;exitY=1;exitDx=0;exitDy=0;" edge="1" parent="1" source="nvtQCPNUQL09ssSKa_be-41" target="nvtQCPNUQL09ssSKa_be-57">
          <mxGeometry relative="1" as="geometry" />
        </mxCell>
        <mxCell id="nvtQCPNUQL09ssSKa_be-41" value="Руководитель отдела (1)" style="rounded=0;whiteSpace=wrap;html=1;" vertex="1" parent="1">
          <mxGeometry x="450" y="200" width="120" height="60" as="geometry" />
        </mxCell>
        <mxCell id="nvtQCPNUQL09ssSKa_be-60" style="edgeStyle=orthogonalEdgeStyle;rounded=0;orthogonalLoop=1;jettySize=auto;html=1;exitX=0.5;exitY=1;exitDx=0;exitDy=0;entryX=0.5;entryY=0;entryDx=0;entryDy=0;" edge="1" parent="1" source="nvtQCPNUQL09ssSKa_be-42" target="nvtQCPNUQL09ssSKa_be-59">
          <mxGeometry relative="1" as="geometry" />
        </mxCell>
        <mxCell id="nvtQCPNUQL09ssSKa_be-42" value="Руководитель отдела (1)" style="rounded=0;whiteSpace=wrap;html=1;" vertex="1" parent="1">
          <mxGeometry x="590" y="200" width="120" height="60" as="geometry" />
        </mxCell>
        <mxCell id="nvtQCPNUQL09ssSKa_be-62" style="edgeStyle=orthogonalEdgeStyle;rounded=0;orthogonalLoop=1;jettySize=auto;html=1;exitX=0.5;exitY=1;exitDx=0;exitDy=0;entryX=0.5;entryY=0;entryDx=0;entryDy=0;" edge="1" parent="1" source="nvtQCPNUQL09ssSKa_be-43" target="nvtQCPNUQL09ssSKa_be-61">
          <mxGeometry relative="1" as="geometry" />
        </mxCell>
        <mxCell id="nvtQCPNUQL09ssSKa_be-43" value="Руководитель отдела (1)" style="rounded=0;whiteSpace=wrap;html=1;" vertex="1" parent="1">
          <mxGeometry x="830" y="200" width="120" height="60" as="geometry" />
        </mxCell>
        <mxCell id="nvtQCPNUQL09ssSKa_be-65" style="edgeStyle=orthogonalEdgeStyle;rounded=0;orthogonalLoop=1;jettySize=auto;html=1;exitX=0.5;exitY=1;exitDx=0;exitDy=0;entryX=0.5;entryY=0;entryDx=0;entryDy=0;" edge="1" parent="1" source="nvtQCPNUQL09ssSKa_be-44" target="nvtQCPNUQL09ssSKa_be-63">
          <mxGeometry relative="1" as="geometry" />
        </mxCell>
        <mxCell id="nvtQCPNUQL09ssSKa_be-44" value="Главный бухгалтер (1)" style="rounded=0;whiteSpace=wrap;html=1;" vertex="1" parent="1">
          <mxGeometry x="970" y="200" width="120" height="60" as="geometry" />
        </mxCell>
        <mxCell id="nvtQCPNUQL09ssSKa_be-66" style="edgeStyle=orthogonalEdgeStyle;rounded=0;orthogonalLoop=1;jettySize=auto;html=1;exitX=0.5;exitY=1;exitDx=0;exitDy=0;" edge="1" parent="1" source="nvtQCPNUQL09ssSKa_be-45" target="nvtQCPNUQL09ssSKa_be-64">
          <mxGeometry relative="1" as="geometry" />
        </mxCell>
        <mxCell id="nvtQCPNUQL09ssSKa_be-45" value="Руководитель отдела (1)" style="rounded=0;whiteSpace=wrap;html=1;" vertex="1" parent="1">
          <mxGeometry x="1110" y="200" width="120" height="60" as="geometry" />
        </mxCell>
        <mxCell id="nvtQCPNUQL09ssSKa_be-46" value="Начальник службы безопасности (1)" style="rounded=0;whiteSpace=wrap;html=1;" vertex="1" parent="1">
          <mxGeometry x="1250" y="200" width="120" height="60" as="geometry" />
        </mxCell>
        <mxCell id="nvtQCPNUQL09ssSKa_be-55" value="Нанимающий менеджер (4)" style="rounded=0;whiteSpace=wrap;html=1;" vertex="1" parent="1">
          <mxGeometry x="310" y="280" width="120" height="60" as="geometry" />
        </mxCell>
        <mxCell id="nvtQCPNUQL09ssSKa_be-57" value="Аналитик отдела продаж (3)" style="rounded=0;whiteSpace=wrap;html=1;" vertex="1" parent="1">
          <mxGeometry x="450" y="280" width="120" height="60" as="geometry" />
        </mxCell>
        <mxCell id="nvtQCPNUQL09ssSKa_be-59" value="Менеджер по закупкам (4)" style="rounded=0;whiteSpace=wrap;html=1;" vertex="1" parent="1">
          <mxGeometry x="590" y="280" width="120" height="60" as="geometry" />
        </mxCell>
        <mxCell id="nvtQCPNUQL09ssSKa_be-61" value="Маркетолог (3)" style="rounded=0;whiteSpace=wrap;html=1;" vertex="1" parent="1">
          <mxGeometry x="830" y="280" width="120" height="60" as="geometry" />
        </mxCell>
        <mxCell id="nvtQCPNUQL09ssSKa_be-63" value="Бухгалтер (5)" style="rounded=0;whiteSpace=wrap;html=1;" vertex="1" parent="1">
          <mxGeometry x="970" y="280" width="120" height="60" as="geometry" />
        </mxCell>
        <mxCell id="nvtQCPNUQL09ssSKa_be-64" value="Инженер (4)" style="rounded=0;whiteSpace=wrap;html=1;" vertex="1" parent="1">
          <mxGeometry x="1110" y="280" width="120" height="60" as="geometry" />
        </mxCell>
        <mxCell id="nvtQCPNUQL09ssSKa_be-67" value="Охранник (3)" style="rounded=0;whiteSpace=wrap;html=1;" vertex="1" parent="1">
          <mxGeometry x="1250" y="280" width="120" height="60" as="geometry" />
        </mxCell>
        <mxCell id="nvtQCPNUQL09ssSKa_be-68" value="Начальник склада" style="rounded=0;whiteSpace=wrap;html=1;" vertex="1" parent="1">
          <mxGeometry x="170" y="740" width="120" height="60" as="geometry" />
        </mxCell>
        <mxCell id="nvtQCPNUQL09ssSKa_be-73" style="edgeStyle=orthogonalEdgeStyle;rounded=0;orthogonalLoop=1;jettySize=auto;html=1;exitX=0.5;exitY=1;exitDx=0;exitDy=0;" edge="1" parent="1" source="nvtQCPNUQL09ssSKa_be-70" target="nvtQCPNUQL09ssSKa_be-71">
          <mxGeometry relative="1" as="geometry" />
        </mxCell>
        <mxCell id="nvtQCPNUQL09ssSKa_be-70" value="Руководитель отдела логистики (1)" style="rounded=0;whiteSpace=wrap;html=1;" vertex="1" parent="1">
          <mxGeometry x="310" y="740" width="120" height="60" as="geometry" />
        </mxCell>
        <mxCell id="nvtQCPNUQL09ssSKa_be-71" value="Логист (4)" style="rounded=0;whiteSpace=wrap;html=1;" vertex="1" parent="1">
          <mxGeometry x="310" y="820" width="120" height="60" as="geometry" />
        </mxCell>
        <mxCell id="nvtQCPNUQL09ssSKa_be-77" style="edgeStyle=orthogonalEdgeStyle;rounded=0;orthogonalLoop=1;jettySize=auto;html=1;exitX=0.5;exitY=1;exitDx=0;exitDy=0;entryX=0.5;entryY=0;entryDx=0;entryDy=0;" edge="1" parent="1" source="nvtQCPNUQL09ssSKa_be-74" target="nvtQCPNUQL09ssSKa_be-76">
          <mxGeometry relative="1" as="geometry" />
        </mxCell>
        <mxCell id="nvtQCPNUQL09ssSKa_be-74" value="Начальник службы безопасности (1)" style="rounded=0;whiteSpace=wrap;html=1;" vertex="1" parent="1">
          <mxGeometry x="450" y="740" width="120" height="60" as="geometry" />
        </mxCell>
        <mxCell id="nvtQCPNUQL09ssSKa_be-76" value="Охранник (3)" style="rounded=0;whiteSpace=wrap;html=1;" vertex="1" parent="1">
          <mxGeometry x="450" y="820" width="120" height="60" as="geometry" />
        </mxCell>
        <mxCell id="nvtQCPNUQL09ssSKa_be-82" style="edgeStyle=orthogonalEdgeStyle;rounded=0;orthogonalLoop=1;jettySize=auto;html=1;exitX=0.5;exitY=1;exitDx=0;exitDy=0;" edge="1" parent="1" source="nvtQCPNUQL09ssSKa_be-78" target="nvtQCPNUQL09ssSKa_be-79">
          <mxGeometry relative="1" as="geometry" />
        </mxCell>
        <mxCell id="nvtQCPNUQL09ssSKa_be-78" value="Начальник службы безопасности (1)" style="rounded=0;whiteSpace=wrap;html=1;" vertex="1" parent="1">
          <mxGeometry x="970" y="740" width="120" height="60" as="geometry" />
        </mxCell>
        <mxCell id="nvtQCPNUQL09ssSKa_be-79" value="Охранник (3)" style="rounded=0;whiteSpace=wrap;html=1;" vertex="1" parent="1">
          <mxGeometry x="970" y="820" width="120" height="60" as="geometry" />
        </mxCell>
        <mxCell id="nvtQCPNUQL09ssSKa_be-83" value="Руководитель точки продаж (1)" style="rounded=0;whiteSpace=wrap;html=1;" vertex="1" parent="1">
          <mxGeometry x="1110" y="740" width="120" height="60" as="geometry" />
        </mxCell>
        <mxCell id="nvtQCPNUQL09ssSKa_be-89" style="edgeStyle=orthogonalEdgeStyle;rounded=0;orthogonalLoop=1;jettySize=auto;html=1;exitX=0.5;exitY=1;exitDx=0;exitDy=0;entryX=0.5;entryY=0;entryDx=0;entryDy=0;" edge="1" parent="1" source="nvtQCPNUQL09ssSKa_be-86" target="nvtQCPNUQL09ssSKa_be-87">
          <mxGeometry relative="1" as="geometry" />
        </mxCell>
        <mxCell id="nvtQCPNUQL09ssSKa_be-86" value="Руководитель отдела продаж (1)" style="rounded=0;whiteSpace=wrap;html=1;" vertex="1" parent="1">
          <mxGeometry x="1250" y="740" width="120" height="60" as="geometry" />
        </mxCell>
        <mxCell id="nvtQCPNUQL09ssSKa_be-87" value="Менеджер по продажам (5)" style="rounded=0;whiteSpace=wrap;html=1;" vertex="1" parent="1">
          <mxGeometry x="1250" y="820" width="120" height="60" as="geometry" />
        </mxCell>
        <mxCell id="nvtQCPNUQL09ssSKa_be-90" value="" style="rounded=0;whiteSpace=wrap;html=1;fillColor=none;" vertex="1" parent="1">
          <mxGeometry x="950" y="490" width="450" height="400" as="geometry" />
        </mxCell>
      </root>
    </mxGraphModel>
  </diagram>
</mxfile>
